Coordinates
version=1
nRows=12
nColumns=24
inDegrees=yes

Units are S.I. units (second, meters, Newtons, ...)
If the header above contains a line with 'inDegrees', this indicates whether rotational values are in degrees (yes) or radians (no).

endheader
time	pelvis_tilt	pelvis_list	pelvis_rotation	pelvis_tx	pelvis_ty	pelvis_tz	hip_flexion_r	hip_adduction_r	hip_rotation_r	knee_angle_r	ankle_angle_r	subtalar_angle_r	mtp_angle_r	hip_flexion_l	hip_adduction_l	hip_rotation_l	knee_angle_l	ankle_angle_l	subtalar_angle_l	mtp_angle_l	lumbar_extension	lumbar_bending	lumbar_rotation
      1.38000000	      4.10162207	     -9.98424175	      3.92132427	      0.09472179	      0.77687501	      0.10160952	     17.67565593	     12.43301941	    -11.02192386	    -26.11468621	      5.54239484	      1.38581704	      0.00000000	     13.04764221	     -9.88367256	      4.17927954	    -69.73396349	    -14.39415190	    -10.56278969	      0.00000000	      0.00000000	      0.00000000	      0.00000000
      1.38500000	      4.17428123	     -9.94562302	      3.69632679	      0.09970987	      0.77790228	      0.10200823	     16.94652181	     12.54617515	    -10.70744869	    -25.76641665	      5.80322794	      1.61823640	      0.00000000	     13.90942945	     -9.54565459	      4.42696050	    -70.25357139	    -13.71028931	    -10.75824607	      0.00000000	      0.00000000	      0.00000000	      0.00000000
      1.39000000	      4.26880215	     -9.89782064	      3.44504141	      0.10460620	      0.77888355	      0.10241348	     16.23486973	     12.64112727	    -10.42759902	    -25.48298222	      6.04172872	      1.79994608	      0.00000000	     14.75491927	     -9.23859531	      4.59355609	    -70.72908897	    -13.04711262	    -10.88620274	      0.00000000	      0.00000000	      0.00000000	      0.00000000
      1.39500000	      4.30270083	     -9.86362895	      3.17116791	      0.10959928	      0.77982578	      0.10280522	     15.54054575	     12.76360181	    -10.03835998	    -25.12373456	      6.39314542	      2.00459728	      0.00000000	     15.61505994	     -8.94149266	      4.76502402	    -71.12178814	    -12.05382501	    -10.87511488	      0.00000000	      0.00000000	      0.00000000	      0.00000000
      1.40000000	      4.36938183	     -9.87792215	      2.79346471	      0.11449391	      0.78067525	      0.10341058	     14.86384579	     12.95510342	     -9.64573646	    -24.86819929	      6.68423036	      2.13759886	      0.00000000	     16.46113508	     -8.81067363	      4.80605351	    -71.54546056	    -10.63110017	     -9.82719546	      0.00000000	      0.00000000	      0.00000000	      0.00000000
      1.40500000	      4.39739290	     -9.76832730	      2.55990323	      0.11944816	      0.78167802	      0.10369708	     14.16151501	     12.96942202	     -9.31385902	    -24.47929487	      6.87516724	      2.26918790	      0.00000000	     17.29205785	     -8.42233322	      4.98634518	    -71.71391894	    -10.11028600	     -9.89910029	      0.00000000	      0.00000000	      0.00000000	      0.00000000
      1.41000000	      4.50569861	     -9.66554010	      2.27604083	      0.12420698	      0.78260656	      0.10407474	     13.49343179	     12.95054112	     -9.18968845	    -24.28832189	      6.98722833	      2.33324233	      0.00000000	     18.07753909	     -8.15145204	      4.99611333	    -71.85997500	     -9.80167300	     -9.90782993	      0.00000000	      0.00000000	      0.00000000	      0.00000000
      1.41500000	      4.42778272	     -9.51524747	      1.97280104	      0.12931345	      0.78354065	      0.10430251	     12.79567647	     12.96730443	     -8.48820279	    -23.76035494	      7.38107139	      2.51876464	      0.00000000	     18.89083183	     -7.68067513	      5.18855154	    -71.83551982	     -8.72394349	     -9.74802400	      0.00000000	      0.00000000	      0.00000000	      0.00000000
      1.42000000	      4.52655501	     -9.48859804	      1.49861047	      0.13423827	      0.78439006	      0.10498856	     12.03592792	     13.14620769	     -7.83867919	    -23.45149462	      7.61259415	      2.38420836	      0.00000000	     19.57101669	     -7.62298798	      5.06351975	    -71.89634319	     -7.25635854	     -8.43697056	      0.00000000	      0.00000000	      0.00000000	      0.00000000
      1.42500000	      4.55126917	     -9.33965129	      1.13366232	      0.13917332	      0.78526373	      0.10533467	     11.34248828	     13.12240112	     -7.32818302	    -23.10967569	      7.85708984	      2.38031592	      0.00000000	     20.28262945	     -7.31704652	      5.02349102	    -71.73907392	     -6.52575241	     -8.28705906	      0.00000000	      0.00000000	      0.00000000	      0.00000000
      1.43000000	      4.54148745	     -9.20275324	      0.83854763	      0.14413133	      0.78609269	      0.10557741	     10.68167043	     13.07918299	     -6.91487243	    -22.74151614	      8.05316177	      2.47980623	      0.00000000	     21.02213612	     -6.99182763	      5.07446038	    -71.48735383	     -5.99680924	     -8.23922822	      0.00000000	      0.00000000	      0.00000000	      0.00000000
      1.43500000	      4.54095047	     -9.03725926	      0.47359601	      0.14908084	      0.78689604	      0.10589922	     10.01154301	     13.01547765	     -6.41003134	    -22.39910683	      8.30583157	      2.55091335	      0.00000000	     21.70805557	     -6.70399442	      5.00164647	    -71.14760396	     -5.34302752	     -8.15713565	      0.00000000	      0.00000000	      0.00000000	      0.00000000
